<svg width="29" height="28" viewBox="0 0 29 28" fill="none" xmlns="http://www.w3.org/2000/svg">
<path fill-rule="evenodd" clip-rule="evenodd" d="M14.5 0C6.76801 0 0.5 6.26801 0.5 14C0.5 21.732 6.76801 28 14.5 28C22.232 28 28.5 21.732 28.5 14C28.5 6.26801 22.232 0 14.5 0ZM20.5302 10.8908H16.5756V9.75783H20.5302V10.8908ZM20.1817 11.8419C19.7058 11.6314 19.1711 11.5257 18.5767 11.5257C17.5766 11.5257 16.7645 11.8384 16.1367 12.4595C15.5106 13.0823 15.1972 13.9771 15.1972 15.1438C15.1972 16.3877 15.5431 17.2868 16.2394 17.8386C16.9322 18.3912 17.7338 18.6667 18.6425 18.6667C19.7427 18.6667 20.5988 18.3393 21.2099 17.6853C21.6015 17.273 21.8227 16.8667 21.871 16.4683H20.0491C19.9438 16.6657 19.8208 16.8199 19.6812 16.9317C19.4275 17.137 19.0965 17.24 18.6917 17.24C18.3071 17.24 17.9796 17.1552 17.7074 16.9862C17.2579 16.7151 17.0226 16.2413 16.9927 15.5665H21.965C21.9729 14.9853 21.9536 14.5384 21.9053 14.23C21.8227 13.7025 21.6419 13.2382 21.36 12.838C21.051 12.3841 20.6585 12.0515 20.1817 11.8419ZM11.4928 9.33331C12.6185 9.34976 13.4148 9.67286 13.8846 10.3035C14.1664 10.6906 14.3078 11.1532 14.3078 11.6928C14.3078 12.2481 14.1664 12.6959 13.8811 13.0337C13.7213 13.2226 13.4868 13.3958 13.1769 13.5517C13.6475 13.7215 14.0022 13.9891 14.2437 14.3556C14.4825 14.7211 14.6028 15.1663 14.6028 15.6895C14.6028 16.2291 14.4658 16.7134 14.191 17.1413C14.0171 17.4245 13.7994 17.6636 13.5377 17.8576C13.2436 18.0802 12.8968 18.2318 12.4955 18.315C12.0943 18.3973 11.6605 18.4371 11.1917 18.4371H7.03337V9.33331H11.4928Z" fill="#FBF1E3"/>
<path fill-rule="evenodd" clip-rule="evenodd" d="M8.87274 10.9141H10.8817C11.3233 10.9141 11.6868 10.9618 11.973 11.0562C12.3032 11.193 12.4682 11.4728 12.4682 11.8981C12.4682 12.2793 12.3427 12.546 12.0933 12.6968C11.8422 12.8475 11.5165 12.9228 11.117 12.9228H8.87274V10.9141ZM17.5124 13.3629C17.7644 13.1065 18.1209 12.9783 18.5774 12.9783C18.9989 12.9783 19.351 13.0987 19.6372 13.3404C19.9199 13.5838 20.0797 13.9372 20.1122 14.405H17.0365C17.1015 13.9667 17.2604 13.6193 17.5124 13.3629ZM11.145 14.4293H8.8727V16.8572H11.1134C11.5138 16.8572 11.8264 16.8035 12.0485 16.697C12.4533 16.4978 12.6552 16.1201 12.6552 15.5605C12.6552 15.0858 12.4603 14.761 12.0678 14.5834C11.8483 14.4847 11.5401 14.4327 11.145 14.4293Z" fill="#FBF1E3"/>
</svg>
